<svg width="281" height="268" viewBox="0 0 281 268" fill="none" xmlns="http://www.w3.org/2000/svg">
<path d="M5.46484 99V-2.14577e-06H59.4648V9H68.4648V45H59.4648V54H68.4648V90H59.4648V99H5.46484ZM23.4648 81H50.4648V54H23.4648V81ZM23.4648 36H50.4648V18H23.4648V36ZM77.5 90V9H86.5V-2.14577e-06H131.5V9H140.5V90H131.5V99H86.5V90H77.5ZM95.5 81H122.5V18H95.5V81ZM149.535 90V9H158.535V-2.14577e-06H203.535V9H212.535V90H203.535V99H158.535V90H149.535ZM167.535 81H194.535V18H167.535V81ZM221.57 99V-2.14577e-06H239.57V81H275.57V99H221.57Z" fill="#6BFF25"/>
<path d="M0.982422 259V178H9.98242V169H54.9824V178H63.9824V259H54.9824V268H9.98242V259H0.982422ZM18.9824 250H45.9824V187H18.9824V250ZM73.0176 268V169H91.0176V178H100.018V196H109.018V214H118.018V169H136.018V268H118.018V259H109.018V241H100.018V223H91.0176V268H73.0176ZM145.053 268V169H163.053V250H199.053V268H145.053ZM208.018 196V169H226.018V187H235.018V205H253.018V187H262.018V169H280.018V196H271.018V214H262.018V232H253.018V268H235.018V232H226.018V214H217.018V196H208.018Z" fill="#FF6969"/>
</svg>
